<svg id="Layer_1" data-name="Layer 1" xmlns="http://www.w3.org/2000/svg" viewBox="0 0 30 30"><defs><style>.cls-1{fill:#5f259f;}.cls-2{fill:#fff;}.cls-3{fill:none;}</style></defs><title>finalhh</title><path class="cls-1" d="M0,15A15,15,0,1,1,15,30,15,15,0,0,1,0,15"/><path class="cls-2" d="M21.79,11.07A1.05,1.05,0,0,0,20.74,10h-2L14.13,4.69a1.66,1.66,0,0,0-1.73-.5l-1.6.48a.33.33,0,0,0-.14.55l5,4.79H8a.4.4,0,0,0-.4.4v.87a1,1,0,0,0,1,1.05H9.84v4c0,3,1.61,4.83,4.3,4.83a6,6,0,0,0,2.34-.42v2.7a1.32,1.32,0,0,0,1.32,1.33H19a.5.5,0,0,0,.5-.5v-12h1.92a.4.4,0,0,0,.4-.4Zm-5.31,7.2a4.4,4.4,0,0,1-1.67.33c-1.37,0-2-.68-2-2.22v-4h3.66Z"/><rect class="cls-3" x="-127.72" y="-115.98" width="285.43" height="261.96"/><rect class="cls-3" x="-127.72" y="-115.98" width="285.43" height="261.96"/><rect class="cls-3" x="-156.72" y="-115.98" width="285.43" height="261.96"/><rect class="cls-3" x="-156.72" y="-115.98" width="285.43" height="261.96"/></svg>